<svg xmlns="http://www.w3.org/2000/svg" xmlns:xlink="http://www.w3.org/1999/xlink" fill="none" version="1.1" width="2880" height="1080" viewBox="0 0 2880 1080"><defs><clipPath id="master_svg0_4_5036"><rect x="0" y="0" width="2880" height="1080" rx="0"/></clipPath><filter id="master_svg1_4_5095" filterUnits="objectBoundingBox" color-interpolation-filters="sRGB" x="-0.4287581699346405" y="-0.49240121580547114" width="1.857516339869281" height="1.9969604863221884"><feFlood flood-opacity="0" result="BackgroundImageFix"/><feColorMatrix in="SourceAlpha" type="matrix" values="0 0 0 0 0 0 0 0 0 0 0 0 0 0 0 0 0 0 127 0"/><feOffset dy="4" dx="0"/><feGaussianBlur stdDeviation="82"/><feColorMatrix type="matrix" values="0 0 0 0 0 0 0 0 0 0 0 0 0 0 0 0 0 0 0.30000001192092896 0"/><feBlend mode="normal" in2="BackgroundImageFix" result="effect1_dropShadow"/><feBlend mode="normal" in="SourceGraphic" in2="effect1_dropShadow" result="shape"/></filter><linearGradient x1="0.5" y1="1" x2="0.5" y2="0" id="master_svg2_4_5194"><stop offset="0%" stop-color="#3C6F9C" stop-opacity="1"/><stop offset="100%" stop-color="#24947E" stop-opacity="1"/></linearGradient><clipPath id="master_svg3_4_5095"><rect x="1058" y="0" width="765" height="658" rx="0"/></clipPath><clipPath id="master_svg4_4_5196"><rect x="1058.0000305175781" y="382" width="765" height="44" rx="0"/></clipPath><clipPath id="master_svg5_4_6583"><rect x="1661" y="0" width="39" height="362" rx="0"/></clipPath><filter id="master_svg6_4_6564" filterUnits="objectBoundingBox" color-interpolation-filters="sRGB" x="-0.16260162601626016" y="-0.04419889502762431" width="1.3252032520325203" height="1.1104972375690607"><feFlood flood-opacity="0" result="BackgroundImageFix"/><feColorMatrix in="SourceAlpha" type="matrix" values="0 0 0 0 0 0 0 0 0 0 0 0 0 0 0 0 0 0 127 0"/><feOffset dy="4" dx="0"/><feGaussianBlur stdDeviation="5"/><feColorMatrix type="matrix" values="0 0 0 0 0 0 0 0 0 0 0 0 0 0 0 0 0 0 0.30000001192092896 0"/><feBlend mode="normal" in2="BackgroundImageFix" result="effect1_dropShadow"/><feBlend mode="normal" in="SourceGraphic" in2="effect1_dropShadow" result="shape"/></filter><filter id="master_svg7_4_5542" filterUnits="objectBoundingBox" color-interpolation-filters="sRGB" x="-0.03875968992248062" y="-0.45714285714285713" width="1.0775193798449612" height="2.142857142857143"><feFlood flood-opacity="0" result="BackgroundImageFix"/><feColorMatrix in="SourceAlpha" type="matrix" values="0 0 0 0 0 0 0 0 0 0 0 0 0 0 0 0 0 0 127 0"/><feOffset dy="4" dx="0"/><feGaussianBlur stdDeviation="5"/><feColorMatrix type="matrix" values="0 0 0 0 0 0 0 0 0 0 0 0 0 0 0 0 0 0 0.30000001192092896 0"/><feBlend mode="normal" in2="BackgroundImageFix" result="effect1_dropShadow"/><feBlend mode="normal" in="SourceGraphic" in2="effect1_dropShadow" result="shape"/></filter><filter id="master_svg8_4_5683" filterUnits="objectBoundingBox" color-interpolation-filters="sRGB" x="-0.060240963855421686" y="-0.45714285714285713" width="1.1204819277108433" height="2.142857142857143"><feFlood flood-opacity="0" result="BackgroundImageFix"/><feColorMatrix in="SourceAlpha" type="matrix" values="0 0 0 0 0 0 0 0 0 0 0 0 0 0 0 0 0 0 127 0"/><feOffset dy="4" dx="0"/><feGaussianBlur stdDeviation="5"/><feColorMatrix type="matrix" values="0 0 0 0 0 0 0 0 0 0 0 0 0 0 0 0 0 0 0.30000001192092896 0"/><feBlend mode="normal" in2="BackgroundImageFix" result="effect1_dropShadow"/><feBlend mode="normal" in="SourceGraphic" in2="effect1_dropShadow" result="shape"/></filter><filter id="master_svg9_4_5734" filterUnits="objectBoundingBox" color-interpolation-filters="sRGB" x="-0.03875968992248062" y="-0.45714285714285713" width="1.0775193798449612" height="2.142857142857143"><feFlood flood-opacity="0" result="BackgroundImageFix"/><feColorMatrix in="SourceAlpha" type="matrix" values="0 0 0 0 0 0 0 0 0 0 0 0 0 0 0 0 0 0 127 0"/><feOffset dy="4" dx="0"/><feGaussianBlur stdDeviation="5"/><feColorMatrix type="matrix" values="0 0 0 0 0 0 0 0 0 0 0 0 0 0 0 0 0 0 0.30000001192092896 0"/><feBlend mode="normal" in2="BackgroundImageFix" result="effect1_dropShadow"/><feBlend mode="normal" in="SourceGraphic" in2="effect1_dropShadow" result="shape"/></filter><filter id="master_svga_4_5771" filterUnits="objectBoundingBox" color-interpolation-filters="sRGB" x="-0.03875968992248062" y="-0.45714285714285713" width="1.0775193798449612" height="2.142857142857143"><feFlood flood-opacity="0" result="BackgroundImageFix"/><feColorMatrix in="SourceAlpha" type="matrix" values="0 0 0 0 0 0 0 0 0 0 0 0 0 0 0 0 0 0 127 0"/><feOffset dy="4" dx="0"/><feGaussianBlur stdDeviation="5"/><feColorMatrix type="matrix" values="0 0 0 0 0 0 0 0 0 0 0 0 0 0 0 0 0 0 0.30000001192092896 0"/><feBlend mode="normal" in2="BackgroundImageFix" result="effect1_dropShadow"/><feBlend mode="normal" in="SourceGraphic" in2="effect1_dropShadow" result="shape"/></filter><filter id="master_svgb_4_5341" filterUnits="objectBoundingBox" color-interpolation-filters="sRGB" x="-0.03875968992248062" y="-0.45714285714285713" width="1.0775193798449612" height="2.142857142857143"><feFlood flood-opacity="0" result="BackgroundImageFix"/><feColorMatrix in="SourceAlpha" type="matrix" values="0 0 0 0 0 0 0 0 0 0 0 0 0 0 0 0 0 0 127 0"/><feOffset dy="4" dx="0"/><feGaussianBlur stdDeviation="5"/><feColorMatrix type="matrix" values="0 0 0 0 0 0 0 0 0 0 0 0 0 0 0 0 0 0 0.30000001192092896 0"/><feBlend mode="normal" in2="BackgroundImageFix" result="effect1_dropShadow"/><feBlend mode="normal" in="SourceGraphic" in2="effect1_dropShadow" result="shape"/></filter><filter id="master_svgc_4_6567" filterUnits="objectBoundingBox" color-interpolation-filters="sRGB" x="-0.22988505747126436" y="-0.24242424242424243" width="1.4597701149425288" height="1.606060606060606"><feFlood flood-opacity="0" result="BackgroundImageFix"/><feColorMatrix in="SourceAlpha" type="matrix" values="0 0 0 0 0 0 0 0 0 0 0 0 0 0 0 0 0 0 127 0"/><feOffset dy="4" dx="0"/><feGaussianBlur stdDeviation="5"/><feColorMatrix type="matrix" values="0 0 0 0 0 0 0 0 0 0 0 0 0 0 0 0 0 0 0.30000001192092896 0"/><feBlend mode="normal" in2="BackgroundImageFix" result="effect1_dropShadow"/><feBlend mode="normal" in="SourceGraphic" in2="effect1_dropShadow" result="shape"/></filter><clipPath id="master_svgd_4_6567"><rect x="1720" y="91" width="87" height="66" rx="19"/></clipPath><filter id="master_svge_4_6573" filterUnits="objectBoundingBox" color-interpolation-filters="sRGB" x="-0.43478260869565216" y="-0.5333333333333333" width="1.8695652173913044" height="2.3333333333333335"><feFlood flood-opacity="0" result="BackgroundImageFix"/><feColorMatrix in="SourceAlpha" type="matrix" values="0 0 0 0 0 0 0 0 0 0 0 0 0 0 0 0 0 0 127 0"/><feOffset dy="4" dx="0"/><feGaussianBlur stdDeviation="5"/><feColorMatrix type="matrix" values="0 0 0 0 0 0 0 0 0 0 0 0 0 0 0 0 0 0 0.30000001192092896 0"/><feBlend mode="normal" in2="BackgroundImageFix" result="effect1_dropShadow"/><feBlend mode="normal" in="SourceGraphic" in2="effect1_dropShadow" result="shape"/></filter><filter id="master_svgf_4_6309" filterUnits="objectBoundingBox" color-interpolation-filters="sRGB" x="-0.125" y="-0.45714285714285713" width="1.25" height="2.142857142857143"><feFlood flood-opacity="0" result="BackgroundImageFix"/><feColorMatrix in="SourceAlpha" type="matrix" values="0 0 0 0 0 0 0 0 0 0 0 0 0 0 0 0 0 0 127 0"/><feOffset dy="4" dx="0"/><feGaussianBlur stdDeviation="5"/><feColorMatrix type="matrix" values="0 0 0 0 0 0 0 0 0 0 0 0 0 0 0 0 0 0 0.30000001192092896 0"/><feBlend mode="normal" in2="BackgroundImageFix" result="effect1_dropShadow"/><feBlend mode="normal" in="SourceGraphic" in2="effect1_dropShadow" result="shape"/></filter><filter id="master_svgg_4_6422" filterUnits="objectBoundingBox" color-interpolation-filters="sRGB" x="-0.125" y="-0.45714285714285713" width="1.25" height="2.142857142857143"><feFlood flood-opacity="0" result="BackgroundImageFix"/><feColorMatrix in="SourceAlpha" type="matrix" values="0 0 0 0 0 0 0 0 0 0 0 0 0 0 0 0 0 0 127 0"/><feOffset dy="4" dx="0"/><feGaussianBlur stdDeviation="5"/><feColorMatrix type="matrix" values="0 0 0 0 0 0 0 0 0 0 0 0 0 0 0 0 0 0 0.30000001192092896 0"/><feBlend mode="normal" in2="BackgroundImageFix" result="effect1_dropShadow"/><feBlend mode="normal" in="SourceGraphic" in2="effect1_dropShadow" result="shape"/></filter><filter id="master_svgh_4_6666" filterUnits="objectBoundingBox" color-interpolation-filters="sRGB" x="-0.125" y="-0.1103448275862069" width="1.25" height="1.2758620689655173"><feFlood flood-opacity="0" result="BackgroundImageFix"/><feColorMatrix in="SourceAlpha" type="matrix" values="0 0 0 0 0 0 0 0 0 0 0 0 0 0 0 0 0 0 127 0"/><feOffset dy="4" dx="0"/><feGaussianBlur stdDeviation="5"/><feColorMatrix type="matrix" values="0 0 0 0 0 0 0 0 0 0 0 0 0 0 0 0 0 0 0.30000001192092896 0"/><feBlend mode="normal" in2="BackgroundImageFix" result="effect1_dropShadow"/><feBlend mode="normal" in="SourceGraphic" in2="effect1_dropShadow" result="shape"/></filter><filter id="master_svgi_4_6864" filterUnits="objectBoundingBox" color-interpolation-filters="sRGB" x="-0.2" y="-0.1103448275862069" width="1.4" height="1.2758620689655173"><feFlood flood-opacity="0" result="BackgroundImageFix"/><feColorMatrix in="SourceAlpha" type="matrix" values="0 0 0 0 0 0 0 0 0 0 0 0 0 0 0 0 0 0 127 0"/><feOffset dy="4" dx="0"/><feGaussianBlur stdDeviation="5"/><feColorMatrix type="matrix" values="0 0 0 0 0 0 0 0 0 0 0 0 0 0 0 0 0 0 0.30000001192092896 0"/><feBlend mode="normal" in2="BackgroundImageFix" result="effect1_dropShadow"/><feBlend mode="normal" in="SourceGraphic" in2="effect1_dropShadow" result="shape"/></filter></defs><g clip-path="url(#master_svg0_4_5036)"><rect x="0" y="0" width="2880" height="1080" rx="0" fill="#5F6361" fill-opacity="1"/><g><path d="M1144.507999,717.316002Q1146.787998,729.476002,1154.273998,738.786003Q1161.759998,748.096001,1175.591995,755.695999L1172.323997,760.711998Q1149.219997,747.183998,1142.379997,727.652Q1139.112,737.456001,1131.359999,745.664001Q1123.608,753.872002,1112.2080002,761.015999L1108.8639998,755.848Q1137.591999,739.431999,1139.112,716.024002L1110.0039997,716.024002L1110.0039997,710.780003L1139.188,710.780003L1139.188,691.856003L1144.66,691.856003L1144.66,710.780003L1174.071999,710.780003L1174.071999,716.024002L1144.584,716.024002L1144.507999,717.316002ZM1242.092,722.864002L1236.924,722.864002L1236.924,700.292004L1187.143997,700.292004L1187.143997,695.580002L1249.92,695.580002L1249.92,700.292004L1242.092,700.292004L1242.092,722.864002ZM1225.37199,705.460003L1225.37199,720.280003L1193.528,720.280003L1193.528,705.460003L1225.37199,705.460003ZM1220.66,709.564003L1198.239998,709.564003L1198.239998,716.328003L1220.66,716.328003L1220.66,709.564003ZM1251.28799,725.676003L1251.28799,730.388L1242.244,730.388L1242.244,750.984001Q1242.244,754.632004,1241.256,756.531998Q1240.26801,758.431999,1237.98801,759.153999Q1235.7079899999999,759.875999,1231.604,759.875999L1223.092,759.875999L1222.028,755.012001L1230.388,755.012001Q1233.2,755.012001,1234.56799,754.594002Q1235.936,754.176003,1236.468,753.0360029999999Q1237,751.895996,1237,749.540001L1237,730.388L1184.711998,730.388L1184.711998,725.676003L1251.28799,725.676003ZM1192.692001,736.3919980000001L1225.37199,736.3919980000001L1225.37199,752.503998L1192.692001,752.503998L1192.692001,736.3919980000001ZM1197.403999,748.400002L1220.66,748.400002L1220.66,740.496002L1197.403999,740.496002L1197.403999,748.400002ZM1323.25999,760.407997L1320.60001,753.872002L1300.004,755.164001Q1294.608,755.543999,1290.048,755.809998Q1285.48801,756.075996,1283.2079899999999,756.227997L1282.752,750.907997Q1285.79199,750.907997,1302.588,749.919998L1302.588,732.060001L1286.78,732.060001L1286.78,704.320004L1302.588,704.320004L1302.588,691.172005L1307.37601,691.172005L1307.37601,704.320004L1323.48801,704.320004L1323.48801,732.060001L1307.37601,732.060001L1307.37601,749.692001L1318.62399,749.0840000000001Q1315.888,742.472,1314.29199,739.052002L1318.62399,737.456001Q1321.20801,743.155998,1326.29999,755.543999L1327.592,758.5840000000001L1323.25999,760.407997ZM1285.868,696.948002Q1280.776,703.332001,1275.532,708.424Q1278.42,714.884003,1279.446,722.75Q1280.472,730.616001,1280.472,744.068001Q1280.472,749.844002,1279.48399,752.884003Q1278.496,755.924004,1276.254,757.101997Q1274.01199,758.279999,1269.908,758.279999L1262.536,758.279999L1261.548,753.491997L1268.388,753.491997Q1271.35201,753.491997,1272.834,752.617996Q1274.31599,751.744003,1274.96201,749.4639970000001Q1275.608,747.183998,1275.608,742.6999969999999Q1275.608,734.036003,1275.076,728.183998Q1269.452,736.012001,1262.384,741.711998L1260.028,736.695999Q1263.752,733.807999,1267.51401,729.856003Q1271.276,725.903999,1274.24001,721.648003Q1273.40399,716.860001,1271.58,712.224003Q1267.02,716.2520030000001,1262.384,719.672001L1259.952,714.960003Q1265.424,710.856003,1269.3,707.284Q1266.79199,702.496002,1262.15601,696.188004L1266.25999,693.604004Q1270.364,698.924004,1273.10001,703.712002Q1277.66,699.152,1281.992,693.68L1285.868,696.948002ZM1291.492,709.336002L1291.492,727.043999L1302.588,727.043999L1302.588,709.336002L1291.492,709.336002ZM1318.7,727.043999L1318.7,709.336002L1307.37601,709.336002L1307.37601,727.043999L1318.7,727.043999ZM1388.62,754.099998Q1391.12799,754.099998,1392.34399,753.681999Q1393.56,753.264,1394.0539899999999,752.162003Q1394.548,751.059998,1394.548,748.931999L1394.548,692.464001L1399.48801,692.464001L1399.48801,750.984001Q1399.48801,754.328003,1398.65201,756.152Q1397.81598,757.975998,1395.7640099999999,758.774002Q1393.71201,759.571999,1389.98801,759.571999L1381.39999,759.571999L1380.336,754.099998L1388.62,754.099998ZM1336.104,715.872002Q1341.804,711.388,1346.858,705.194Q1351.912,699,1355.3319999999999,692.996002L1359.74001,692.996002Q1360.12,693.376003,1360.65201,693.946003Q1361.18399,694.516003,1361.8680100000001,695.352001Q1370.3039899999999,704.396,1375.8519900000001,711.008003L1373.116,715.492001Q1369.01199,710.096001,1359.588,699.684002Q1358.90399,699,1357.992,697.936001Q1350.468,710.324001,1338.612,720.507999L1336.104,715.872002ZM1380.336,742.167999L1380.336,698.468002L1385.20001,698.468002L1385.20001,742.167999L1380.336,742.167999ZM1369.84799,716.708Q1369.84799,719.139999,1369.7340100000001,724.307999Q1369.62,729.476002,1369.54401,732.440002Q1369.31601,735.784,1368.556,737.57Q1367.79599,739.356003,1365.93399,740.153999Q1364.07199,740.952,1360.57599,740.952L1353.888,740.952L1352.976,736.468002L1359.284,736.468002Q1361.716,736.468002,1362.85599,736.088001Q1363.996,735.708,1364.414,734.681999Q1364.8319999999999,733.655998,1364.9840100000001,731.375999Q1365.06,729.552002,1365.17401,726.550003Q1365.28799,723.548,1365.28799,721.420002L1348.26401,721.420002L1348.26401,747.260002Q1348.26401,750.148003,1348.68201,751.515999Q1349.10001,752.884003,1350.354,753.4159999999999Q1351.608,753.947998,1354.26801,753.947998L1363.84399,753.947998Q1366.57999,753.947998,1367.87201,753.454002Q1369.164,752.959999,1369.65799,751.781998Q1370.15201,750.604004,1370.3039899999999,748.171997Q1370.608,743.612,1370.608,741.028L1375.396,742.015999Q1375.396,743.839996,1375.24399,746.309998Q1375.09201,748.779999,1374.94,750.604004Q1374.63599,753.795998,1373.724,755.505997Q1372.81201,757.216003,1370.68399,757.938004Q1368.556,758.660004,1364.52802,758.660004L1352.89999,758.660004Q1349.252,758.660004,1347.2,757.748001Q1345.14799,756.835999,1344.274,754.708Q1343.39999,752.580002,1343.39999,748.704002L1343.39999,716.708L1369.84799,716.708ZM1425.10001,710.476002Q1423.65601,707.892002,1420.8819899999999,703.408001Q1418.108,698.924004,1415.98001,695.732002L1420.008,693.148003Q1421.8319999999999,695.656002,1424.758,700.178001Q1427.68399,704.700001,1429.35599,707.664001L1425.10001,710.476002ZM1454.1319899999999,707.132Q1462.56799,702.116001,1466.216,699.6080019999999L1434.37201,699.6080019999999L1434.37201,695.200001L1474.34799,695.200001L1474.34799,699.456001Q1467.81201,703.940002,1458.0839799999999,709.868Q1458.84399,710.476002,1459.224,710.704002L1474.65201,710.704002L1474.65201,742.472Q1474.65201,746.5,1472.97998,747.982002Q1471.30798,749.4639970000001,1466.89999,749.4639970000001L1461.3519900000001,749.4639970000001L1460.36401,745.283997L1465.68399,745.283997Q1468.26801,745.283997,1469.142,744.447998Q1470.0159899999999,743.612,1470.0159899999999,740.799999L1470.0159899999999,737.6080019999999L1456.944,737.6080019999999L1456.944,748.779999L1452.15601,748.779999L1452.15601,737.6080019999999L1439.388,737.6080019999999L1439.388,749.767998L1434.5239900000001,749.767998L1434.5239900000001,710.704002L1451.47198,710.704002L1440.90799,703.484001L1443.4160200000001,699.988003Q1445.84799,701.584003,1454.1319899999999,707.132ZM1452.15601,722.256001L1452.15601,714.808002L1439.388,714.808002L1439.388,722.256001L1452.15601,722.256001ZM1456.944,722.256001L1470.0159899999999,722.256001L1470.0159899999999,714.808002L1456.944,714.808002L1456.944,722.256001ZM1479.21201,753.872002L1478.37601,758.736L1444.556,758.736Q1439.16,758.736,1435.62601,757.975998Q1432.09201,757.216003,1429.16599,755.202003Q1426.23999,753.188004,1423.276,749.311996L1414.91599,759.496002L1412.3319999999999,754.632004L1420.84399,744.676003L1420.84399,722.408001L1412.40799,722.408001L1412.40799,717.544003L1425.70801,717.544003L1425.70801,744.524002Q1428.216,748.552002,1430.724,750.528Q1433.23199,752.503998,1436.38599,753.188004Q1439.54001,753.872002,1444.85999,753.872002L1479.21201,753.872002ZM1439.388,726.436001L1439.388,733.504002L1452.15601,733.504002L1452.15601,726.436001L1439.388,726.436001ZM1456.944,726.436001L1456.944,733.504002L1470.0159899999999,733.504002L1470.0159899999999,726.436001L1456.944,726.436001ZM1508.548,722.560001L1520.85999,722.560001L1520.85999,727.652L1508.32001,727.652Q1507.94,731.984001,1507.25601,734.796001Q1512.272,740.571999,1520.556,751.136002L1516.90799,754.783997Q1509.91599,745.8919980000001,1505.5839799999999,740.723999Q1503.68399,745.968002,1500.4160200000001,750.945999Q1497.1480099999999,755.924004,1492.1319899999999,761.244003L1488.40799,757.292Q1495.70401,749.844002,1499.20001,742.928001Q1502.69598,736.012001,1503.38,727.652L1488.78799,727.652L1488.78799,722.560001L1503.608,722.560001L1503.68399,706.904003L1498.21201,706.904003Q1495.70401,713.516003,1493.04401,718.228001L1488.86401,715.720001Q1491.67599,710.400002,1494.22198,703.902Q1496.76801,697.404003,1498.21201,691.856003L1502.92401,692.920002Q1501.70801,697.480003,1500.18799,701.66L1519.64398,701.66L1519.64398,706.904003L1508.70001,706.904003L1508.548,722.484001L1508.548,722.560001ZM1524.81201,759.040001L1524.81201,699L1551.03198,699L1551.03198,759.115997L1545.86401,759.115997L1545.86401,752.047997L1529.828,752.047997L1529.828,759.115997L1524.81201,759.040001ZM1529.828,704.168003L1529.828,746.879997L1545.86401,746.879997L1545.86401,704.168003L1529.828,704.168003ZM1630.07202,708.728001L1630.07202,713.896L1591.2359900000001,713.896L1591.2359900000001,708.728001L1611.452,708.728001Q1618.7479899999998,696.872002,1621.86401,691.020004L1626.42401,693.528004Q1624.5239900000001,696.872002,1617.30402,708.728001L1630.07202,708.728001ZM1601.952,707.360001Q1600.12799,703.940002,1593.97198,694.440002L1598,691.704002Q1603.70001,700.064003,1606.35999,704.700001L1601.952,707.360001ZM1588.272,732.667999Q1585.992,730.464001,1580.3680100000001,725.676003L1580.3680100000001,761.167999L1575.504,761.167999L1575.504,724.232002Q1571.70401,734.644001,1566.384,742.776001L1564.25601,736.924Q1567.37201,731.908001,1570.41199,725.106003Q1573.452,718.304001,1575.3519900000001,711.616001L1565.47198,711.616001L1565.47198,706.676003L1575.504,706.676003L1575.504,692.084003L1580.3680100000001,692.084003L1580.3680100000001,706.676003L1589.564,706.676003L1589.564,711.616001L1580.3680100000001,711.616001L1580.3680100000001,719.976002Q1582.79999,721.799999,1585.992,724.384003Q1589.18399,726.968002,1591.008,728.716003L1588.272,732.667999ZM1627.10797,729.172001L1627.10797,734.264L1593.21201,734.264L1593.21201,729.172001L1627.10797,729.172001ZM1586.828,756.912003L1586.828,751.8199999999999L1631.21198,751.8199999999999L1631.21198,756.912003L1586.828,756.912003Z" fill="#FAFBFF" fill-opacity="1"/></g><g><path d="M1910.832001,251.976002L1910.832001,256.992001L1856.948,256.992001L1856.948,273.940002Q1856.948,283.440002,1856.34,289.596001Q1855.731999,295.751999,1854.021999,301.071999Q1852.311999,306.391998,1848.9679995,312.39599599999997L1844.3319998,308.823997Q1847.448,303.580002,1849.0439997,298.830002Q1850.639999,294.080002,1851.247999,288.456001Q1851.856,282.832001,1851.856,274.167999L1851.856,251.976002L1879.899998,251.976002Q1878.455997,246.884003,1877.087997,243.236004L1882.331997,241.944Q1884.307999,247.34,1885.751999,251.976002L1910.832001,251.976002ZM1884.231998,292.18Q1883.32,285.947998,1881.534,277.398003Q1879.747997,268.848,1878.379997,263.604L1883.243999,262.768002Q1884.612,268.088001,1886.397999,276.562Q1888.183998,285.036003,1889.171997,290.964001L1884.231998,292.18ZM1911.743996,302.82L1911.743996,307.760002L1857.632,307.760002L1857.632,302.82L1889.323997,302.82Q1892.82,294.536003,1896.354,283.896Q1899.887997,273.25600099999997,1901.939999,264.896L1906.804001,266.264Q1904.979996,273.484001,1901.483997,283.972Q1897.987999,294.459999,1894.643997,302.82L1911.743996,302.82ZM1870.627998,296.512001Q1869.108,290.356003,1866.219999,281.312Q1863.331999,272.268002,1861.128,266.796001L1865.688,265.352001Q1867.74,270.596001,1870.703999,279.678001Q1873.667999,288.760002,1875.34,294.992004L1870.627998,296.512001ZM1927.779999,247.492001L1982.57599,247.492001L1982.57599,302.592003Q1982.57599,305.935997,1981.702,307.722Q1980.828,309.50800300000003,1978.8519900000001,310.26799800000003Q1976.87601,311.028,1973.304,311.028L1965.476,311.028L1964.64,305.783997L1971.784,305.783997Q1974.216,305.783997,1975.356,305.403999Q1976.496,305.024002,1976.914,304.036003Q1977.3319999999999,303.047997,1977.3319999999999,300.919998L1977.3319999999999,289.748001L1957.5720000000001,289.748001L1957.5720000000001,310.648003L1952.404,310.648003L1952.404,289.748001L1932.720001,289.748001Q1932.188004,296.512001,1930.515999,301.489998Q1928.844002,306.468002,1925.423996,312.39599599999997L1920.636002,309.88800000000003Q1923.828003,304.643997,1925.272003,300.806Q1926.716003,296.968002,1927.248001,292.066002Q1927.779999,287.164001,1927.779999,278.19599900000003L1927.779999,247.492001ZM1952.404,266.416L1952.404,252.584003L1933.024002,252.584003L1933.024002,266.416L1952.404,266.416ZM1957.5720000000001,266.416L1977.3319999999999,266.416L1977.3319999999999,252.584003L1957.5720000000001,252.584003L1957.5720000000001,266.416ZM1952.404,284.655998L1952.404,271.507999L1933.024002,271.507999L1933.024002,280.02Q1933.024002,283.211998,1932.947998,284.655998L1952.404,284.655998ZM1957.5720000000001,271.507999L1957.5720000000001,284.655998L1977.3319999999999,284.655998L1977.3319999999999,271.507999L1957.5720000000001,271.507999ZM2062.07199,259.728001L2062.07199,264.896L2023.23599,264.896L2023.23599,259.728001L2043.452,259.728001Q2050.748,247.872002,2053.864,242.020004L2058.424,244.528004Q2056.52399,247.872002,2049.304,259.728001L2062.07199,259.728001ZM2033.952,258.360001Q2032.12799,254.940002,2025.972,245.440002L2030,242.704002Q2035.7,251.064003,2038.3600000000001,255.700001L2033.952,258.360001ZM2020.272,283.667999Q2017.992,281.464001,2012.368,276.676003L2012.368,312.167999L2007.504,312.167999L2007.504,275.232002Q2003.70399,285.644001,1998.384,293.776001L1996.256,287.924Q1999.37199,282.908001,2002.412,276.106003Q2005.452,269.30400099999997,2007.35201,262.616001L1997.472,262.616001L1997.472,257.676003L2007.504,257.676003L2007.504,243.084003L2012.368,243.084003L2012.368,257.676003L2021.564,257.676003L2021.564,262.616001L2012.368,262.616001L2012.368,270.976002Q2014.8,272.799999,2017.992,275.384003Q2021.18399,277.968002,2023.008,279.716003L2020.272,283.667999ZM2059.108,280.172001L2059.108,285.264L2025.21201,285.264L2025.21201,280.172001L2059.108,280.172001ZM2018.828,307.912003L2018.828,302.82L2063.21201,302.82L2063.21201,307.912003L2018.828,307.912003Z" fill="#FAFBFF" fill-opacity="1"/></g><g><path d="M1124.976,771.984001L1124.976,776.124001L1122.216,776.124001L1122.216,769.546001L1132.888,769.546001Q1132.290001,767.521999,1131.507999,765.2220001L1134.497999,764.6699982Q1135.326,766.647999,1136.108002,769.546001L1146.458,769.546001L1146.458,776.124001L1143.743999,776.124001L1143.743999,771.984001L1124.976,771.984001ZM1111.5440001,806.576L1108.8759999,806.576L1108.8759999,768.625999L1119.64,768.625999L1119.64,802.757999L1111.5440001,802.757999L1111.5440001,806.576ZM1117.064,779.068001L1117.064,771.616001L1111.5440001,771.616001L1111.5440001,779.068001L1117.064,779.068001ZM1147.285999,788.498001L1147.285999,790.889999L1135.556,790.889999L1135.556,794.478001L1144.203999,794.478001L1144.203999,806.990002L1141.397999,806.990002L1141.397999,804.827999L1126.862,804.827999L1126.862,807.035999L1124.01,807.035999L1124.01,794.478001L1132.704,794.478001L1132.704,790.889999L1121.204,790.889999L1121.204,788.498001L1132.704,788.498001L1132.704,785.278L1123.780001,785.278L1123.780001,782.84L1132.704,782.84L1132.704,779.666L1123.458,779.666L1123.458,777.228001L1132.704,777.228001L1132.704,773.686001L1135.556,773.686001L1135.556,777.228001L1144.939999,777.228001L1144.939999,779.666L1135.556,779.666L1135.556,782.84L1144.526001,782.84L1144.526001,785.278L1135.556,785.278L1135.556,788.498001L1147.285999,788.498001ZM1111.5440001,782.104L1111.5440001,789.188L1117.064,789.188L1117.064,782.104L1111.5440001,782.104ZM1111.5440001,792.223999L1111.5440001,799.813999L1117.064,799.813999L1117.064,792.223999L1111.5440001,792.223999ZM1126.862,802.389999L1141.397999,802.389999L1141.397999,797.054001L1126.862,797.054001L1126.862,802.389999ZM1152.806,804.644001Q1156.716,801.240002,1158.487,798.709999Q1160.257999,796.18,1160.878998,792.707001Q1161.5,789.234001,1161.5,782.610001L1161.5,768.257999L1182.43,768.257999L1182.43,799.538002Q1182.43,800.826,1182.613998,801.401001Q1182.798004,801.976002,1183.349998,802.182999Q1183.902,802.389999,1185.143997,802.389999L1187.214005,802.389999Q1188.778,802.389999,1189.237999,801.861Q1189.697998,801.332001,1189.790001,799.630001L1189.973999,791.718002L1193.009995,792.408001Q1193.009995,793.8340000000001,1192.779999,799.354L1192.734001,800.826Q1192.641998,802.757999,1192.227997,803.77Q1191.813995,804.782001,1190.824997,805.195999Q1189.835999,805.610001,1187.996002,805.610001L1183.994003,805.610001Q1181.326004,805.610001,1180.245003,804.551998Q1179.164001,803.493999,1179.164001,800.6419980000001L1179.164001,771.523998L1164.674,771.523998L1164.674,782.610001Q1164.674,789.739998,1164.007,793.557999Q1163.34,797.375999,1161.431,800.273998Q1159.521999,803.172001,1155.335999,806.944L1152.806,804.644001ZM1211.732,785.232L1211.962,786.612L1207.27,788.313999L1207.27,801.562Q1207.27,803.310001,1206.856,804.23Q1206.442,805.150002,1205.43,805.5409999999999Q1204.4180000000001,805.931999,1202.531998,805.931999L1199.358002,805.931999L1198.989998,802.987999L1201.795998,802.987999Q1203.405998,802.987999,1203.8659969999999,802.597Q1204.326,802.206001,1204.326,800.779999L1204.326,789.372002L1198.806,791.349998L1198.1159969999999,788.267998L1204.326,786.106001L1204.326,776.584L1199.174004,776.584L1199.174004,773.639999L1204.326,773.639999L1204.326,765.4980011L1207.27,765.4980011L1207.27,773.639999L1211.916,773.639999L1211.916,776.584L1207.27,776.584L1207.27,785.048Q1209.846,784.128,1211.502,783.438L1211.732,785.232ZM1238.59601,793.8340000000001Q1238.59601,794.57,1238.55,795.029999Q1238.412,799.400002,1238.366,800.136002Q1238.228,802.206001,1237.584,803.355999Q1236.94,804.506001,1235.606,804.988998Q1234.272,805.472,1231.88,805.472L1220.288,805.472Q1216.976,805.472,1215.504,804.091999Q1214.032,802.712002,1214.032,799.032001L1214.032,767.889999L1236.48,767.889999L1236.48,787.393999L1217.068,787.393999L1217.068,798.25Q1217.068,800.688,1217.988,801.6080019999999Q1218.908,802.528,1221.254,802.528L1231.328,802.528Q1232.9840100000001,802.528,1233.858,802.182999Q1234.73199,801.838001,1235.10001,801.102001Q1235.468,800.366001,1235.56,798.939999Q1235.698,795.214001,1235.698,793.052002L1238.59601,793.8340000000001ZM1223.784,784.450001L1223.784,770.972L1217.068,770.972L1217.068,784.450001L1223.784,784.450001ZM1226.682,784.450001L1233.62799,784.450001L1233.62799,770.972L1226.682,770.972L1226.682,784.450001ZM1278.064,795.214001Q1280.778,800.09,1285.37799,804.276001L1283.63,806.990002Q1279.12201,802.757999,1276.408,798.02Q1273.64799,802.389999,1268.496,807.174L1266.564,804.736Q1269.416,802.206001,1271.44,799.882999Q1273.464,797.560001,1274.8899999999999,795.122002Q1272.40601,789.464001,1271.34799,781.782Q1270.15201,784.082001,1269.186,785.507999L1267.576,782.794001Q1269.692,779.620001,1271.463,774.629Q1273.23399,769.638,1273.97,764.9920006L1276.776,765.4980011Q1276.132,769.178001,1274.798,773.318001L1285.194,773.318001L1285.194,776.124001L1282.57199,776.124001Q1282.02,782.426001,1281.008,786.934Q1279.996,791.442001,1278.064,795.214001ZM1255.754,802.113998L1255.754,785.416L1260.17,785.416L1260.17,776.768L1254.23599,776.768L1254.23599,773.962L1260.17,773.962L1260.17,765.2680016L1262.976,765.2680016L1262.976,773.962L1268.864,773.962L1268.864,776.768L1262.976,776.768L1262.976,785.416L1267.392,785.416L1267.392,802.113998L1255.754,802.113998ZM1254.328,766.049999Q1253.27,770.374001,1251.98199,774.284L1251.98199,806.944L1249.084,806.944L1249.084,781.736Q1247.52,785.232,1245.496,788.543999L1244.162,784.771999Q1246.1399999999999,781.414,1248.187,776.032Q1250.23399,770.650002,1251.42999,765.3139992L1254.328,766.049999ZM1273.28,777.596001Q1273.97,786.106001,1276.5,792.040001Q1277.88,788.866001,1278.731,785.025Q1279.5819999999999,781.184,1280.04199,776.124001L1273.8319999999999,776.124001L1273.28,777.596001ZM1258.422,799.216L1264.77,799.216L1264.77,788.313999L1258.422,788.313999L1258.422,799.216Z" fill="#FAFBFF" fill-opacity="0.8899999856948853"/></g><g><path d="M1883.147999,319.166L1883.147999,322.202L1877.352001,322.202L1877.352001,350.952Q1877.352001,353.528,1876.777,354.816002Q1876.202,356.104,1874.776001,356.632999Q1873.349998,357.161999,1870.497999,357.161999L1864.518,357.161999L1863.92,353.987999L1869.808001,353.987999Q1871.694,353.987999,1872.591,353.712002Q1873.487999,353.436001,1873.810001,352.63100099999997Q1874.132,351.826,1874.132,350.124001L1874.132,322.202L1842.852,322.202L1842.852,319.166L1883.147999,319.166ZM1847.6820002,329.378L1865.944,329.378L1865.944,347.363998L1847.6820002,347.363998L1847.6820002,329.378ZM1850.718,344.374001L1862.862,344.374001L1862.862,332.368L1850.718,332.368L1850.718,344.374001ZM1924.410004,316.7280006L1926.986,316.7280006L1926.986,351.917999Q1926.986,354.723999,1925.813004,355.943001Q1924.639999,357.161999,1921.787994,357.161999L1917.694,357.161999L1917.141998,354.448002L1921.052002,354.448002Q1922.984001,354.448002,1923.696999,353.757999Q1924.410004,353.068001,1924.410004,351.181999L1924.410004,316.7280006ZM1913.875999,318.706001L1913.875999,334.483999L1916.451996,334.483999L1916.451996,337.198L1913.875999,337.198L1913.875999,352.515999Q1913.875999,355.091999,1913.025002,356.012001Q1912.173996,356.931999,1909.966003,356.931999L1907.113998,356.931999L1906.653999,354.125999L1909,354.125999Q1909.966003,354.125999,1910.426003,353.918999Q1910.886002,353.712002,1911.07,353.137001Q1911.253998,352.562,1911.253998,351.32L1911.253998,337.198L1906.93,337.198Q1906.8840030000001,342.764,1906.584999,346.237Q1906.285995,349.709999,1905.550003,352.308998Q1904.813995,354.908001,1903.433998,357.897999L1901.225998,356.057999Q1902.514,353.481998,1903.158001,351.250999Q1903.802002,349.02,1904.078003,345.86899900000003Q1904.354004,342.718002,1904.400002,337.198L1900.996002,337.198L1900.996002,351.688Q1900.996002,354.310001,1900.167999,355.321999Q1899.34,356.334,1897.085999,356.334L1894.464001,356.334L1893.958,353.619999L1896.304001,353.619999Q1897.5,353.619999,1897.983002,352.952999Q1898.466,352.285999,1898.466,350.675999L1898.466,337.198L1894.417999,337.198Q1894.372002,342.99399900000003,1894.049999,346.375Q1893.728001,349.75600099999997,1892.969002,352.240002Q1892.209999,354.723999,1890.646,357.806L1888.576,356.012001Q1889.956001,353.344002,1890.623001,351.181999Q1891.290001,349.02,1891.566002,345.915001Q1891.841999,342.810001,1891.888,337.198L1888.852001,337.198L1888.852001,334.483999L1891.888,334.483999L1891.888,334.162001L1891.888,318.706001L1900.996002,318.706001L1900.996002,334.483999L1904.400002,334.483999L1904.400002,334.162001L1904.400002,318.706001L1913.875999,318.706001ZM1918.061996,321.006001L1920.5,321.006001L1920.5,347.40999999999997L1918.061996,347.40999999999997L1918.061996,321.006001ZM1894.417999,321.557999L1894.417999,334.483999L1898.466,334.483999L1898.466,321.557999L1894.417999,321.557999ZM1906.93,321.557999L1906.93,334.483999L1911.253998,334.483999L1911.253998,321.557999L1906.93,321.557999ZM1974.87201,345.248001Q1974.7340100000001,348.652,1974.55,351.32Q1974.366,353.436001,1973.745,354.516998Q1973.12399,355.598,1971.744,356.012001Q1970.364,356.425999,1967.78799,356.425999L1948.284,356.425999Q1944.236,356.425999,1942.557,354.884998Q1940.878,353.344002,1940.878,349.433998L1940.878,334.438L1935.127998,335.955999L1934.529999,332.874001L1940.878,331.264L1940.878,321.512001L1944.144,321.512001L1944.144,330.389999L1953.62,327.952L1953.62,316.1759987L1956.702,316.1759987L1956.702,327.17L1970.916,323.535999Q1970.778,326.48,1970.52499,331.356001Q1970.272,336.23199999999997,1970.088,339.038002Q1969.90399,341.108002,1969.283,342.188999Q1968.662,343.27,1967.42,343.73Q1966.1779999999999,344.189999,1964.016,344.189999L1959.876,344.189999L1959.186,341.153999L1962.82,341.153999Q1964.568,341.153999,1965.373,340.901001Q1966.1779999999999,340.647999,1966.52299,339.935001Q1966.868,339.222,1966.96,337.704L1967.052,335.955999Q1967.512,329.378,1967.512,327.492001L1956.702,330.298L1956.702,349.158001L1953.62,349.158001L1953.62,331.125999L1944.144,333.610001L1944.144,348.422001Q1944.144,350.492001,1944.627,351.549999Q1945.11,352.608002,1946.214,352.976002Q1947.318,353.344002,1949.434,353.344002L1966.408,353.344002Q1968.70801,353.344002,1969.69699,353.091Q1970.686,352.838001,1971.077,352.078999Q1971.468,351.32,1971.56,349.526001Q1971.698,346.352001,1971.698,344.466L1974.87201,345.248001ZM2021.14799,319.166L2021.14799,322.202L2015.35201,322.202L2015.35201,350.952Q2015.35201,353.528,2014.77701,354.816002Q2014.202,356.104,2012.776,356.632999Q2011.35001,357.161999,2008.498,357.161999L2002.51801,357.161999L2001.92,353.987999L2007.808,353.987999Q2009.694,353.987999,2010.591,353.712002Q2011.48801,353.436001,2011.81,352.63100099999997Q2012.132,351.826,2012.132,350.124001L2012.132,322.202L1980.85201,322.202L1980.85201,319.166L2021.14799,319.166ZM1985.68201,329.378L2003.944,329.378L2003.944,347.363998L1985.68201,347.363998L1985.68201,329.378ZM1988.718,344.374001L2000.862,344.374001L2000.862,332.368L1988.718,332.368L1988.718,344.374001ZM2043.642,336.691999L2043.78,337.888L2037.202,339.911999L2037.202,352.332001Q2037.202,354.310001,2036.742,355.321999Q2036.282,356.334,2035.155,356.748001Q2034.028,357.161999,2031.82001,357.161999L2027.864,357.161999L2027.26601,353.942001L2030.854,353.942001Q2032.28,353.942001,2032.94701,353.735001Q2033.614,353.528,2033.84399,352.999001Q2034.07401,352.470001,2034.07401,351.273998L2034.07401,340.877998Q2030.302,342.028,2027.45,342.99399900000003L2026.806,339.866001L2032.37199,338.302L2034.07401,337.796L2034.07401,328.044001L2027.40401,328.044001L2027.40401,324.962L2034.07401,324.962L2034.07401,316.1300011L2037.202,316.1300011L2037.202,324.962L2043.274,324.962L2043.274,328.044001L2037.202,328.044001L2037.202,336.83Q2039.59399,336.094,2043.412,334.806L2043.642,336.691999ZM2067.14799,319.764L2067.14799,322.891998L2059.466,322.891998L2059.466,351.779999Q2059.466,353.80400099999997,2058.868,354.953999Q2058.27,356.104,2056.91299,356.610001Q2055.556,357.116001,2053.1639999999998,357.116001L2047.966,357.116001L2047.32201,353.942001L2052.3360000000002,353.942001Q2053.946,353.942001,2054.75101,353.712002Q2055.556,353.481998,2055.87801,352.861Q2056.2,352.240002,2056.2,351.043999L2056.2,322.891998L2044.47,322.891998L2044.47,319.764L2067.14799,319.764ZM2113.332,335.358L2113.332,338.532L2103.16602,338.532L2103.16602,357.944L2099.89999,357.944L2099.89999,338.532L2086.79001,338.532Q2086.56,343.27,2085.59399,346.466999Q2084.62801,349.664001,2082.51199,352.401001Q2080.396,355.138,2076.48599,358.495998L2074.09399,356.150002Q2077.774,353.068001,2079.729,350.630001Q2081.68401,348.192001,2082.535,345.431999Q2083.386,342.672001,2083.57001,338.532L2072.62199,338.532L2072.62199,335.358L2083.662,335.358L2083.662,334.392L2083.662,322.386002L2074.46201,322.386002L2074.46201,319.257999L2111.39999,319.257999L2111.39999,322.386002L2103.16602,322.386002L2103.16602,335.358L2113.332,335.358ZM2086.882,335.358L2099.89999,335.358L2099.89999,322.386002L2086.882,322.386002L2086.882,334.07L2086.882,335.358Z" fill="#FAFBFF" fill-opacity="0.8899999856948853"/></g><g filter="url(#master_svg1_4_5095)"><g clip-path="url(#master_svg3_4_5095)"><rect x="1058" y="0" width="765" height="658" rx="0" fill="url(#master_svg2_4_5194)" fill-opacity="1"/><g clip-path="url(#master_svg4_4_5196)"><rect x="1058.0000305175781" y="382" width="765" height="44" rx="0" fill="#181818" fill-opacity="1"/><rect x="1425" y="398" width="31" height="6" rx="0" fill="#F4F4F4" fill-opacity="1"/><rect x="1425" y="409" width="31" height="6" rx="0" fill="#F4F4F4" fill-opacity="1"/></g><g clip-path="url(#master_svg5_4_6583)"><rect x="1661" y="0" width="39" height="362" rx="0" fill="#181818" fill-opacity="1"/><rect x="2027.9999694824219" y="16" width="31" height="6" rx="0" fill="#F4F4F4" fill-opacity="1"/><rect x="2027.9999694824219" y="27" width="31" height="6" rx="0" fill="#F4F4F4" fill-opacity="1"/><rect x="1673" y="0" width="8" height="21" rx="0" fill="#F4F4F4" fill-opacity="1"/><rect x="1686" y="0" width="8" height="21" rx="0" fill="#F4F4F4" fill-opacity="1"/></g><rect x="1058" y="502" width="765" height="156" rx="0" fill="#292D2C" fill-opacity="1"/><rect x="1700" y="0" width="123" height="362" rx="0" fill="#292D2C" fill-opacity="1" filter="url(#master_svg6_4_6564)"/><rect x="1058" y="426" width="765" height="76" rx="0" fill="#181818" fill-opacity="1"/><path d="M1823,426L1058,426L1058,427L1823,427L1823,426Z" fill-rule="evenodd" fill="#000000" fill-opacity="1"/><rect x="1106" y="535" width="96" height="91" rx="0" fill="#3E4241" fill-opacity="1"/><g filter="url(#master_svg7_4_5542)"><path d="M1260.675,594.5Q1261.55,598.4,1263.925001,601.237499Q1266.300001,604.075001,1270.675001,606.375L1269.175001,608.674999Q1262.1,604.725,1259.650001,598.674999Q1257.35,604.299999,1249.9750001,608.799999L1248.4250001,606.424999Q1252.5750003,604.200001,1255.1750001999999,601.137501Q1257.775001,598.075001,1258.150001,594.275L1249,594.275L1249,591.849999L1258.225,591.849999L1258.225,585.8999996L1260.75,585.8999996L1260.75,591.849999L1270.075001,591.849999L1270.075001,594.275L1260.7,594.275Q1260.7,594.425,1260.675,594.5ZM1292.849998,595.875L1290.450001,595.875L1290.450001,588.8500004L1274.25,588.8500004L1274.25,586.8249989L1295.150002,586.8249989L1295.150002,588.8500004L1292.849998,588.8500004L1292.849998,595.875ZM1287.224998,590.25L1287.224998,595.224999L1276.174999,595.224999L1276.174999,590.25L1287.224998,590.25ZM1285,591.875L1278.4,591.875L1278.4,593.625L1285,593.625L1285,591.875ZM1295.599998,596.675L1295.599998,598.75L1292.900002,598.75L1292.900002,605.299999Q1292.900002,606.549999,1292.537498,607.225Q1292.175003,607.9,1291.375,608.1625Q1290.575001,608.424999,1289.125,608.424999L1286.325001,608.424999L1285.849998,606.424999L1288.550003,606.424999Q1289.400002,606.424999,1289.787498,606.3125Q1290.175003,606.200001,1290.325001,605.875Q1290.474998,605.549999,1290.474998,604.85L1290.474998,598.75L1273.475,598.75L1273.475,596.675L1295.599998,596.675ZM1275.924999,600.375L1287.224998,600.375L1287.224998,605.825001L1275.924999,605.825001L1275.924999,600.375ZM1278.1,604.125L1285.049999,604.125L1285.049999,602.025L1278.1,602.025L1278.1,604.125ZM1311.650002,597.775Q1313.349998,599.924999,1315.712502,601.825001Q1318.074997,603.725,1320.724998,605.049999L1319.224998,607.424999Q1316.775002,605.950001,1314.599998,604.012501Q1312.425003,602.075001,1310.724998,599.950001L1310.724998,608.725L1308.25,608.725L1308.25,600.049999Q1304.950001,604.225,1299.799999,607.5L1298.275002,605.25Q1301.025002,603.75,1303.362499,601.8375Q1305.700001,599.924999,1307.375,597.775L1300.200001,597.775L1300.200001,595.45L1308.25,595.45L1308.25,591.724999L1299.224998,591.724999L1299.224998,589.375L1308.25,589.375L1308.25,586.0499992L1310.724998,586.0499992L1310.724998,589.375L1319.775002,589.375L1319.775002,591.724999L1310.724998,591.724999L1310.724998,595.45L1318.824997,595.45L1318.824997,597.775L1311.650002,597.775ZM1340.675003,594.7Q1342.650002,595.825,1345.625,596.65L1344.824997,598.75Q1341.125,597.674999,1338.849998,596.075Q1336.449997,597.700001,1333.025002,598.9L1332.224998,596.875Q1335.099998,595.875,1337.150002,594.65Q1336,593.5,1334.925003,591.849999Q1334.175003,592.724999,1333.349998,593.575L1332.050003,591.849999Q1333.375,590.4750004,1334.5625,588.7624989Q1335.75,587.0499992,1336.425003,585.4499989L1338.574997,586.0249996Q1338.199997,586.8249989,1337.699997,587.7999992L1344.400002,587.7999992L1344.400002,589.8500004Q1342.925003,592.7,1340.675003,594.7ZM1332.525002,605.125L1332.550003,606.375Q1332.025002,606.424999,1328.875,606.9375Q1325.724998,607.450001,1324.525002,607.65L1323.625,607.799999L1323.349998,605.5L1324.375,605.35L1324.375,596.675L1326.300003,596.675L1326.300003,605.025Q1327.5,604.825001,1327.800003,604.775L1327.800003,594.8L1324.574997,594.8L1324.574997,586.8500004L1332,586.8500004L1332,594.8L1329.875,594.8L1329.875,598.174999L1332.324997,598.174999L1332.324997,600.299999L1329.875,600.299999L1329.875,604.424999L1332.5,603.975L1332.525002,605.125ZM1329.949997,588.9750004L1326.599998,588.9750004L1326.599998,592.7L1329.949997,592.7L1329.949997,588.9750004ZM1336.25,590.125Q1337.425003,592.125,1338.900002,593.425Q1340.775002,591.925,1342.074997,589.8500004L1336.425003,589.8500004L1336.25,590.125ZM1336.050003,608.775L1333.800003,608.775L1333.800003,599.225L1344.074997,599.225L1344.074997,608.775L1341.824997,608.775L1341.824997,607.174999L1336.050003,607.174999L1336.050003,608.775ZM1341.824997,605.174999L1341.824997,601.325001L1336.050003,601.325001L1336.050003,605.174999L1341.824997,605.174999ZM1358.225,585.875L1360.75,585.875L1360.75,593.724999L1368.925,593.724999L1368.925,608.65L1366.375,608.65L1366.375,607.424999L1349.05,607.424999L1349.05,605.15L1366.375,605.15L1366.375,601.625L1350.3,601.625L1350.3,599.299999L1366.375,599.299999L1366.375,596.05L1349.575,596.05L1349.575,593.724999L1358.225,593.724999L1358.225,585.875ZM1354.375,593.05Q1353.65,592.099999,1352.3625,590.6499996Q1351.075,589.1999989,1350,588.0749989L1351.725,586.4499989Q1354.95,589.8999996,1356.25,591.425L1354.375,593.05ZM1369.05,587.9750004Q1368.2,589,1366.825,590.5749989Q1365.45,592.15,1364.45,593.175L1362.725,591.575Q1363.875,590.375,1365.15,588.9249992Q1366.425,587.4750004,1367.2,586.4750004L1369.05,587.9750004ZM1377.45,589.7999992L1377.45,595.95Q1377.45,600.35,1376.96249,603.0875Q1376.47501,605.825001,1375.14999,608.775L1373.25,607.4Q1374.375,605.025,1374.7875,602.549999Q1375.2,600.075001,1375.2,596L1375.2,587.7999992L1384.45,587.7999992Q1384.39999,587.6749992,1383.77499,586.0499992L1386.425,585.6499996L1387,587.1499996L1387.22501,587.7999992L1395.47501,587.7999992L1395.47501,589.7999992L1391.575,589.7999992L1391.575,591.775L1395.075,591.775L1395.075,593.4L1391.875,593.4Q1392.60001,594.2,1393.6125,594.9375Q1394.625,595.675,1395.77499,596.2L1394.925,597.849998Q1393.22501,596.95,1391.575,595.25L1391.575,598.075001L1389.625,598.075001L1389.625,595.3Q1388.375,596.75,1386.5,598.049999L1385.52499,596.7L1385.39999,596.9Q1384.5,596.275,1383.47501,595.625L1383.47501,598.075001L1381.47501,598.075001L1381.47501,595.45Q1380.3,596.775,1378.675,597.9L1377.60001,596.474999Q1380.02499,594.974999,1381.175,593.4L1378.25,593.4L1378.25,591.775L1381.47501,591.775L1381.47501,589.7999992L1377.45,589.7999992ZM1389.625,591.775L1389.625,589.7999992L1383.47501,589.7999992L1383.47501,591.775L1386.14999,591.775L1386.14999,593.4L1383.47501,593.4L1383.47501,593.825Q1385.325,594.875,1386.25,595.5L1385.60001,596.575Q1386.925,595.75,1387.7625,594.9875Q1388.60001,594.224999,1389.22501,593.4L1386.89999,593.4L1386.89999,591.775L1389.625,591.775ZM1378.10001,600.700001L1378.10001,598.875L1395.2,598.875L1395.2,600.700001L1384.375,600.700001Q1383.7,601.625,1383,602.35L1393.7,602.35L1393.7,608.725L1391.47501,608.725L1391.47501,607.725L1382.55,607.725L1382.55,608.75L1380.375,608.75L1380.375,604.725Q1378.97501,605.775,1377.55,606.549999L1376.75,604.549999Q1379.7,603.15,1381.875,600.700001L1378.10001,600.700001ZM1382.55,606.025L1391.47501,606.025L1391.47501,604.075001L1382.55,604.075001L1382.55,606.025ZM1406.825,597.9L1404.02499,598.799999L1404.02499,605.700001Q1404.02499,606.725,1403.7625,607.2875Q1403.5,607.85,1402.8875,608.075001Q1402.27499,608.299999,1401.125,608.299999L1398.97501,608.299999L1398.55,605.975L1400.39999,605.975Q1401.2,605.975,1401.47501,605.762501Q1401.75,605.549999,1401.75,604.85L1401.75,599.525Q1399.825,600.15,1398.77499,600.525L1398.25,598.099998Q1399.425,597.75,1401.75,597L1401.75,592.55L1398.625,592.55L1398.625,590.25L1401.75,590.25L1401.75,585.9499989L1404.02499,585.9499989L1404.02499,590.25L1406.77499,590.25L1406.77499,592.55L1404.02499,592.55L1404.02499,596.25L1406.39999,595.425L1406.625,596.7L1406.825,597.9ZM1420.75,594.575L1420.75,596.925L1417.02499,596.925L1417.02499,608.575001L1414.675,608.575001L1414.675,596.925L1410.425,596.925Q1410.375,599.924999,1410.1375,601.8375Q1409.89999,603.75,1409.325,605.2875Q1408.75,606.825001,1407.675,608.65L1405.47501,607.375Q1406.64999,605.575001,1407.1875,604.174999Q1407.72501,602.775,1407.925,600.924999Q1408.125,599.075001,1408.125,595.75L1408.125,588.0749989Q1413.25,587.7250004,1419.05,586.4499989L1419.7,588.7999992Q1417.52499,589.2999992,1415.0625,589.6749992Q1412.60001,590.0499992,1410.425,590.25L1410.425,594.575L1420.75,594.575Z" fill="#5F6361" fill-opacity="1"/></g><g filter="url(#master_svg8_4_5683)"><path d="M1716.6750200000001,572.475Q1713.47501,572.475,1711.7375200000001,569.875Q1710,567.275,1710,562.474998Q1710,557.65,1711.7375200000001,555.0499992Q1713.47501,552.4499989,1716.6750200000001,552.4499989Q1719.875,552.4499989,1721.6125200000001,555.0499992Q1723.35001,557.65,1723.35001,562.474998Q1723.35001,567.275,1721.6125200000001,569.875Q1719.875,572.475,1716.6750200000001,572.475ZM1716.6750200000001,569.85Q1718.47501,569.85,1719.46252,567.9375Q1720.45001,566.025,1720.45001,562.474998Q1720.45001,558.925,1719.46252,557Q1718.47501,555.0749989,1716.6750200000001,555.0749989Q1714.875,555.0749989,1713.88751,557Q1712.90002,558.925,1712.90002,562.474998Q1712.90002,566.025,1713.88751,567.9375Q1714.875,569.85,1716.6750200000001,569.85ZM1732.75003,572.125L1729.90002,572.125L1729.90002,556.05L1725.97504,558.099999L1725.97504,555.125L1730.50003,552.7999992L1732.75003,552.7999992L1732.75003,572.125ZM1740.65002,561.55L1737.40002,561.55L1737.40002,558.3L1740.65002,558.3L1740.65002,561.55ZM1740.65002,572.125L1737.40002,572.125L1737.40002,568.875L1740.65002,568.875L1740.65002,572.125ZM1754.47501,565.424999L1756.85001,565.424999L1756.85001,568.049999L1754.47501,568.049999L1754.47501,572.125L1751.625,572.125L1751.625,568.049999L1743,568.049999L1743,566.075001L1750.45001,552.7999992L1754.47501,552.7999992L1754.47501,565.424999ZM1751.625,555.9499989L1746.32501,565.424999L1751.625,565.424999L1751.625,555.9499989ZM1765.6750200000001,560.025Q1767.4250200000001,560.025,1768.76251,560.775Q1770.10001,561.525,1770.83749,562.912498Q1771.57501,564.299999,1771.57501,566.125Q1771.57501,568.049999,1770.77499,569.487499Q1769.97501,570.924999,1768.53751,571.700001Q1767.10001,572.475,1765.1750200000001,572.475Q1762.82501,572.475,1761.13751,571.2875Q1759.45001,570.1,1758.77499,568.15L1761.375,567.25Q1761.85001,568.475,1762.8125,569.174999Q1763.77499,569.875,1765.1750200000001,569.875Q1766.8000200000001,569.875,1767.76251,568.887501Q1768.72501,567.9,1768.72501,566.225Q1768.72501,564.549999,1767.7375200000001,563.5875Q1766.75,562.625,1765.10001,562.625Q1764.10001,562.625,1763.27499,563.0625Q1762.45001,563.5,1761.85001,564.325001L1759.45001,563.724998L1760.22501,552.7999992L1770.5500200000001,552.7999992L1770.5500200000001,555.3999996L1762.85001,555.3999996L1762.39999,561Q1763.02499,560.5,1763.88751,560.2625Q1764.75,560.025,1765.6750200000001,560.025Z" fill="#5F6361" fill-opacity="1"/></g><rect x="1132" y="558" width="12" height="47" rx="0" fill="#5F6361" fill-opacity="1"/><rect x="1162.9999694824219" y="558" width="12" height="47" rx="0" fill="#5F6361" fill-opacity="1"/><g filter="url(#master_svg9_4_5734)"><path d="M1093.25,478.15L1093.25,454.960001L1100.8699999,454.960001Q1104.469999,454.960001,1107.035,456.3700008Q1109.6,457.780001,1110.934999,460.390001Q1112.27,463,1112.27,466.57Q1112.27,470.139999,1110.875,472.75Q1109.48,475.360001,1106.795,476.754999Q1104.11,478.15,1100.3599997,478.15L1093.25,478.15ZM1100.3599997,474.96999900000003Q1104.41,474.96999900000003,1106.585,472.78000099999997Q1108.76,470.59,1108.76,466.57Q1108.76,462.52,1106.66,460.345001Q1104.559999,458.17,1100.5999994,458.17L1096.6399999,458.17L1096.6399999,474.96999900000003L1100.3599997,474.96999900000003ZM1133.629997,478.15L1130.029999,478.15L1127.599998,471.220001L1119.289999,471.220001L1116.859999,478.15L1113.26,478.15L1121.689999,454.960001L1125.200001,454.960001L1133.629997,478.15ZM1123.34,459.67L1120.43,468.01L1126.459999,468.01L1123.52,459.67L1123.34,459.67ZM1145.269997,457.75Q1143.139999,457.75,1141.535,458.83Q1139.93,459.91,1139.059998,461.905001Q1138.189999,463.900002,1138.189999,466.57Q1138.189999,469.27,1139.029999,471.264999Q1139.869999,473.26,1141.43,474.325001Q1142.989998,475.389999,1145.089996,475.389999Q1146.709999,475.389999,1147.954998,474.76Q1149.199997,474.130001,1150.279999,472.93L1150.279999,468.700001L1144.969997,468.700001L1144.969997,465.52L1153.610001,465.52L1153.610001,474.16Q1151.959999,476.32,1149.814999,477.445Q1147.669998,478.57,1145.089996,478.57Q1141.939999,478.57,1139.599998,477.1Q1137.259998,475.630001,1135.985001,472.915001Q1134.709999,470.200001,1134.709999,466.57Q1134.709999,462.910001,1136,460.195Q1137.290001,457.48,1139.674999,456.0100002Q1142.059998,454.5400009,1145.269997,454.5400009Q1147.91,454.5400009,1149.994999,455.7250004Q1152.079998,456.9099998,1153.339996,458.98L1150.639999,460.870001Q1149.709999,459.460001,1148.254997,458.605Q1146.799999,457.75,1145.269997,457.75ZM1161.229996,467.74L1161.229996,475L1172.599998,475L1172.599998,478.15L1157.839996,478.15L1157.839996,454.960001L1172.209991,454.960001L1172.209991,458.110001L1161.229996,458.110001L1161.229996,464.619999L1171.610001,464.619999L1171.610001,467.74L1161.229996,467.74ZM1190.269997,478.15L1186.939995,478.15L1186.939995,454.960001L1190.209991,454.960001L1198.16,468.130001L1198.34,468.130001L1206.28999,454.960001L1209.53,454.960001L1209.53,478.15L1206.2,478.15L1206.2,461.470001L1206.02,461.470001L1199.35999,472.540001L1197.13999,472.540001L1190.449997,461.5L1190.269997,461.5L1190.269997,478.15ZM1223.75,478.57Q1220.60001,478.57,1218.26,477.1Q1215.92,475.630001,1214.645,472.915001Q1213.37,470.200001,1213.37,466.57Q1213.37,462.910001,1214.645,460.195Q1215.92,457.48,1218.26,456.0100002Q1220.60001,454.5400009,1223.75,454.5400009Q1226.92999,454.5400009,1229.27,456.0100002Q1231.6100000000001,457.48,1232.87,460.195Q1234.13,462.910001,1234.13,466.57Q1234.13,470.200001,1232.87,472.915001Q1231.6100000000001,475.630001,1229.255,477.1Q1226.89999,478.57,1223.75,478.57ZM1223.75,475.389999Q1225.81999,475.389999,1227.38,474.309999Q1228.94,473.23,1229.795,471.235001Q1230.64999,469.24,1230.64999,466.57Q1230.64999,463.900002,1229.795,461.905001Q1228.94,459.91,1227.38,458.83Q1225.81999,457.75,1223.75,457.75Q1221.64999,457.75,1220.09,458.83Q1218.53,459.91,1217.69,461.905001Q1216.85,463.900002,1216.85,466.57Q1216.85,469.24,1217.69,471.235001Q1218.53,473.23,1220.09,474.309999Q1221.64999,475.389999,1223.75,475.389999ZM1249.6100000000001,466.150002Q1252.10001,466.48,1253.45,467.889999Q1254.8,469.299999,1254.8,471.49Q1254.8,474.700001,1252.38499,476.424999Q1249.97,478.15,1245.47,478.15L1237.97,478.15L1237.97,454.960001L1245.38,454.960001Q1249.37,454.960001,1251.53,456.5050011Q1253.69,458.050001,1253.69,460.9Q1253.69,462.820001,1252.625,464.125Q1251.56,465.43,1249.6100000000001,465.970001L1249.6100000000001,466.150002ZM1241.3600000000001,458.110001L1241.3600000000001,464.560001L1244.99001,464.560001Q1247.45,464.560001,1248.8,463.66Q1250.14999,462.76,1250.14999,461.17Q1250.14999,459.700001,1248.8,458.905001Q1247.45,458.110001,1244.96001,458.110001L1241.3600000000001,458.110001ZM1245.05,475Q1248.08,475,1249.685,474.01Q1251.29001,473.02,1251.29001,471.190001Q1251.29001,469.51,1249.685,468.610001Q1248.08,467.709999,1245.08,467.709999L1241.3600000000001,467.709999L1241.3600000000001,475L1245.05,475ZM1262.03,454.960001L1262.03,478.15L1258.6399999999999,478.15L1258.6399999999999,454.960001L1262.03,454.960001ZM1269.92,454.960001L1269.92,475L1281.1399999999999,475L1281.1399999999999,478.15L1266.53,478.15L1266.53,454.960001L1269.92,454.960001ZM1287.5,467.74L1287.5,475L1298.87,475L1298.87,478.15L1284.1100000000001,478.15L1284.1100000000001,454.960001L1298.48,454.960001L1298.48,458.110001L1287.5,458.110001L1287.5,464.619999L1297.88,464.619999L1297.88,467.74L1287.5,467.74Z" fill="#5F6361" fill-opacity="1"/></g><g filter="url(#master_svga_4_5771)"><path d="M1610.70001,453.8199997L1633.11002,453.8199997L1633.11002,475.870001Q1633.11002,477.49,1632.73502,478.315001Q1632.36002,479.139999,1631.47501,479.470001Q1630.59,479.799999,1628.88,479.799999L1625.64001,479.799999L1625.16,477.28000099999997L1628.34,477.28000099999997Q1629.23999,477.28000099999997,1629.63,477.115Q1630.01999,476.950001,1630.155,476.514999Q1630.29001,476.08,1630.29001,475.120001L1630.32001,456.3999996L1613.51999,456.3999996L1613.51999,465.16Q1613.51999,469.27,1613.28,471.67Q1613.04001,474.07,1612.39499,475.975Q1611.75,477.879999,1610.39999,480.220001L1607.82001,478.450001Q1609.11002,476.379999,1609.70999,474.684999Q1610.31,472.99,1610.505,470.695Q1610.70001,468.400002,1610.70001,464.110001L1610.70001,453.8199997ZM1614.48001,466.209999L1614.48001,463.900002L1620.51001,463.900002L1620.51001,461.59L1615.41,461.59L1615.41,459.280001L1620.51001,459.280001L1620.51001,457.09L1623.17999,457.09L1623.17999,459.280001L1628.28,459.280001L1628.28,461.59L1623.17999,461.59L1623.17999,463.900002L1629.23999,463.900002L1629.23999,466.209999L1614.48001,466.209999ZM1616.13,468.400002L1627.47,468.400002L1627.47,476.139999L1616.13,476.139999L1616.13,468.400002ZM1618.67999,473.83L1624.95001,473.83L1624.95001,470.709999L1618.67999,470.709999L1618.67999,473.83ZM1656.51001,453.0699997Q1656.69,459.49,1657.47,463.584999Q1658.25,467.68,1660.01999,470.785Q1661.79001,473.889999,1665.06,477.16L1662.66,479.830002Q1659.17999,475.9,1657.32001,472.389999Q1655.45999,468.880001,1654.62,464.455Q1653.78,460.030001,1653.54001,453.0699997L1656.51001,453.0699997ZM1637.82001,477.49Q1640.97,473.860001,1642.59,470.83Q1644.20999,467.799999,1644.95999,463.93Q1645.70999,460.059999,1645.95001,453.6700001L1648.89001,453.6700001Q1648.56,460.690001,1647.79501,464.815001Q1647.03,468.940001,1645.32001,472.255001Q1643.61002,475.57,1640.19,479.740002L1637.82001,477.49ZM1683.53998,478.15L1679.75998,478.15L1688.39999,458.17L1678.10999,458.17L1678.07999,454.960001L1692.38998,454.960001L1692.38998,457.300001L1683.53998,478.15ZM1718.34,453.9099998L1718.34,475.57Q1718.34,477.190001,1717.9499799999999,478.045Q1717.56,478.9,1716.60001,479.244999Q1715.63998,479.59000000000003,1713.87,479.59000000000003L1709.63998,479.59000000000003L1709.07001,476.68L1713.12,476.68Q1714.13998,476.68,1714.59,476.545Q1715.04001,476.41,1715.20499,476.035Q1715.37,475.66,1715.37,474.82L1715.37,471.25L1702.22998,471.25Q1701.87,473.92,1700.95499,475.945Q1700.04001,477.96999900000003,1698.20999,480.310001L1695.60001,478.57Q1697.42999,476.41,1698.26999,474.76Q1699.10999,473.110001,1699.41,470.934999Q1699.70999,468.76,1699.70999,464.77L1699.70999,453.9099998L1718.34,453.9099998ZM1715.37,461.35L1715.37,456.7600002L1702.56,456.7600002L1702.56,461.35L1715.37,461.35ZM1715.37,468.49L1715.37,464.110001L1702.56,464.110001L1702.56,465.1Q1702.56,466.450001,1702.5,468.49L1715.37,468.49ZM1733.28,478.57Q1730.97,478.57,1729.155,477.715Q1727.34,476.860001,1726.32001,475.34499900000003Q1725.29999,473.83,1725.29999,471.91Q1725.29999,469.84,1726.56,468.16Q1727.82001,466.48,1729.62,465.82L1729.62,465.73Q1728.20999,465.220001,1727.17499,463.795Q1726.13998,462.37,1726.13998,460.66Q1726.13998,458.890001,1727.05499,457.495001Q1727.97,456.1000004,1729.59,455.3199997Q1731.20999,454.5400009,1733.28,454.5400009Q1735.35001,454.5400009,1736.98499,455.3199997Q1738.62,456.1000004,1739.535,457.495001Q1740.4499799999999,458.890001,1740.4499799999999,460.66Q1740.4499799999999,462.46,1739.41501,463.855Q1738.38,465.25,1736.94,465.73L1736.94,465.82Q1738.76999,466.51,1740.03,468.174999Q1741.29001,469.84,1741.29001,471.91Q1741.29001,473.83,1740.26999,475.34499900000003Q1739.25,476.860001,1737.435,477.715Q1735.62,478.57,1733.28,478.57ZM1733.28,464.32Q1734.89999,464.32,1735.9499799999999,463.40500099999997Q1737,462.490001,1737,461.02Q1737,459.52,1735.965,458.59Q1734.92999,457.66,1733.28,457.66Q1731.63,457.66,1730.595,458.59Q1729.56,459.52,1729.56,461.02Q1729.56,462.46,1730.60999,463.389999Q1731.66,464.32,1733.28,464.32ZM1733.28,475.48Q1735.26001,475.48,1736.51999,474.355Q1737.78,473.23,1737.78,471.43Q1737.78,469.630001,1736.51999,468.505001Q1735.26001,467.380001,1733.28,467.380001Q1731.32999,467.380001,1730.05499,468.505001Q1728.78,469.630001,1728.78,471.43Q1728.78,473.23,1730.04001,474.355Q1731.29999,475.48,1733.28,475.48ZM1747.95001,479.98L1747.95001,454.3000011L1768.23001,454.3000011L1768.23001,479.950001L1765.17001,479.950001L1765.17001,477.96999900000003L1750.98001,477.96999900000003L1750.98001,479.98L1747.95001,479.98ZM1765.17001,464.59L1765.17001,457.24L1750.98001,457.24L1750.98001,464.59L1765.17001,464.59ZM1750.98001,467.53000099999997L1750.98001,475.03000099999997L1765.17001,475.03000099999997L1765.17001,467.53000099999997L1750.98001,467.53000099999997Z" fill="#5F6361" fill-opacity="1"/></g><g filter="url(#master_svgb_4_5341)"><path d="M1263.5,569.76L1263.5,574.139999L1274.689999,574.139999L1274.689999,576.84L1249.3399999,576.84L1249.3399999,574.139999L1260.469999,574.139999L1260.469999,569.76L1252.1300001,569.76L1252.1300001,567L1260.469999,567L1260.469999,563.130001L1253.6900001,563.130001L1253.6900001,561.09Q1251.7399998,562.380001,1249.8799999,563.400002L1248.4399999,560.67Q1252.8499999,558.450001,1255.835,555.99Q1258.82,553.5300007,1260.799999,550.5300007L1263.199999,550.5300007Q1267.039999,556.5,1275.5,560.64L1274.059999,563.220001Q1272.109999,562.26,1270.309999,561.09L1270.309999,563.130001L1263.5,563.130001L1263.5,567L1271.9,567L1271.9,569.76L1263.5,569.76ZM1262.059999,553.5900002Q1259.509999,557.07,1254.7399998,560.400001L1269.289999,560.400001Q1264.73,557.280001,1262.059999,553.5900002ZM1305.68,570.030001Q1305.260002,572.309999,1304.900002,573.99Q1304.389999,576.18,1303.504997,577.02Q1302.619999,577.860001,1301.330002,577.860001Q1300.189999,577.860001,1299.23,577.049999Q1298.27,576.24,1297.07,574.32L1296.439999,573.18Q1294.489998,575.309999,1291.790001,577.470001L1289.809998,575.280001Q1293.199997,572.67,1295.299999,570.209999Q1294.040001,565.98,1293.23,558.030001L1283.84,558.030001L1283.84,561.900002L1291.279999,561.900002Q1291.279999,562.77,1291.114998,566.369999Q1290.950001,569.970001,1290.860001,570.9Q1290.739998,572.370001,1290.32,573.195Q1289.900002,574.02,1288.985001,574.41Q1288.07,574.799999,1286.419998,574.799999L1284.349998,574.799999L1283.779999,572.040001L1285.73,572.040001Q1286.84,572.040001,1287.305,571.905001Q1287.77,571.77,1287.934998,571.395Q1288.099998,571.02,1288.189999,570.15Q1288.25,569.49,1288.325001,567.584999Q1288.400002,565.68,1288.43,564.630001L1283.84,564.630001Q1283.779999,569.16,1283.195,572.115Q1282.610001,575.07,1281.169998,578.099998L1278.41,576.809999Q1279.52,574.74,1280.09,572.955Q1280.66,571.17,1280.869999,568.950001Q1281.080002,566.73,1281.080002,563.190001L1281.080002,555.27L1292.989998,555.27L1292.66,550.5900002L1295.389999,550.5900002L1295.720001,555.27L1300.879997,555.27Q1298.809998,553.0799999,1297.580002,552L1299.41,550.1700001Q1301.209999,551.8199997,1303.099998,553.7700005L1301.540001,555.27L1305.049999,555.27L1305.049999,558.030001L1295.959999,558.030001Q1296.470001,563.76,1297.369999,567.48Q1299.349998,564.42,1300.939999,559.710001L1303.489998,560.76Q1302.41,563.790001,1301.209999,566.205Q1300.010002,568.620001,1298.419998,570.780001Q1299.049999,572.34,1299.709999,573.360001Q1300.699997,574.77,1301.449997,574.77Q1301.84,574.77,1302.125,574.334999Q1302.41,573.9,1302.68,572.67Q1303.010002,571.02,1303.279999,569.220001L1305.68,570.030001ZM1319.93,552.0600014L1333.339996,552.0600014L1333.339996,562.98L1319.93,562.98L1319.93,552.0600014ZM1312.43,575.610001L1309.849998,575.610001L1309.849998,553.4099998L1317.32,553.4099998L1317.32,573.299999L1312.43,573.299999L1312.43,575.610001ZM1330.699997,556.530001L1330.699997,554.4300003L1322.540001,554.4300003L1322.540001,556.530001L1330.699997,556.530001ZM1314.860001,570.450001L1314.860001,556.32L1312.43,556.32L1312.43,570.450001L1314.860001,570.450001ZM1322.540001,558.6L1322.540001,560.73L1330.699997,560.73L1330.699997,558.6L1322.540001,558.6ZM1319.18,578.099998L1319.18,565.200001L1334.150002,565.200001L1334.150002,578.07L1331.479996,578.07L1331.479996,576.690001L1321.699997,576.690001L1321.699997,578.099998L1319.18,578.099998ZM1331.479996,569.85L1331.479996,567.51L1321.699997,567.51L1321.699997,569.85L1331.479996,569.85ZM1321.699997,572.040001L1321.699997,574.440001L1331.479996,574.440001L1331.479996,572.040001L1321.699997,572.040001ZM1365.05,561L1346.150002,561Q1346.150002,563.52,1346.059998,565.560001L1359.56,565.560001L1359.56,577.860001L1356.62,577.860001L1356.62,568.380001L1345.849998,568.380001Q1345.519997,571.440001,1344.620003,573.66Q1343.720001,575.879999,1341.889999,578.310001L1339.07,576.75Q1340.870003,574.5,1341.754997,572.43Q1342.639999,570.360001,1342.955002,567.720001Q1343.269997,565.08,1343.269997,560.73L1343.269997,551.2200012L1346.150002,551.2200012L1346.150002,558.18L1355.51,558.18L1355.51,550.7399998L1358.39,550.7399998L1358.39,558.18L1365.05,558.18L1365.05,561Z" fill="#FAFBFF" fill-opacity="1"/></g><g filter="url(#master_svgc_4_6567)"><g clip-path="url(#master_svgd_4_6567)"><rect x="1720" y="91" width="87" height="66" rx="19" fill="#FF3B3D" fill-opacity="1"/><path d="M1797.0315112890626,107L1811.7206592890625,130.304203L1782.3423654890626,130.304203L1797.0315112890626,107Z" fill="#FAFBFF" fill-opacity="1" transform="matrix(0.006457116920500994,0.9999246597290039,-0.9999246597290039,0.007106625009328127,1875.5677651102076,-1673.6962442129152)"/></g></g><g filter="url(#master_svge_4_6573)"><path d="M1753.18,181.5419998L1753.18,185.1759996L1758.653999,185.1759996L1758.653999,202.587L1756.514999,202.587L1756.514999,201.023001L1747.6829996,201.023001L1747.6829996,202.587L1745.5669999,202.587L1745.5669999,185.1759996L1751.041,185.1759996L1751.041,181.5419998L1753.18,181.5419998ZM1741.197,182.0939999Q1743.9569998,183.9799995,1745.1760001,184.8999996L1743.9569998,186.6709995Q1742.8530002,185.7740002,1740.944,184.4169998L1740.0239999,183.75L1741.197,182.0939999ZM1751.041,192.076L1751.041,187.269L1747.6829996,187.269L1747.6829996,192.076L1751.041,192.076ZM1756.514999,192.076L1756.514999,187.269L1753.18,187.269L1753.18,192.076L1756.514999,192.076ZM1740.392,187.43L1741.9560001,188.58Q1743.796,189.914,1744.5320001,190.489L1743.3130002,192.329Q1741.7260001,190.995,1739.196,189.132L1740.392,187.43ZM1739.656,201.92000000000002Q1739.955,201.115,1740.9554999,197.826Q1741.9560001,194.537001,1742.1170001,193.847L1744.21,194.375999Q1744.0029998,194.951,1743.1059999,197.941Q1742.2090001,200.931,1741.7950001,202.44899900000001L1739.656,201.92000000000002ZM1751.041,194.1L1747.6829996,194.1L1747.6829996,198.976L1751.041,198.976L1751.041,194.1ZM1753.18,194.1L1753.18,198.976L1756.514999,198.976L1756.514999,194.1L1753.18,194.1ZM1766.059999,185.0150003Q1765.209,186.2340002,1763.944,187.614L1762.311001,186.3949995Q1763.392,185.2910004,1764.312,183.9915009Q1765.232,182.6919994,1765.83,181.3810005L1767.945999,181.7719994Q1767.67,182.3929996,1767.187,183.2670002L1772.914001,183.2670002L1772.914001,185.0150003L1769.234001,185.0150003Q1769.049999,184.7849998,1770.200001,186.2799997L1768.360001,186.9700003Q1767.854,186.1879997,1766.957001,185.0150003L1766.059999,185.0150003ZM1782.620003,183.2670002L1782.620003,185.0150003L1778.848,185.0150003Q1779.423,185.7279997,1779.376999,185.6820002L1779.813999,186.257L1777.973999,186.9700003Q1777.306999,186.0039997,1776.501999,185.0150003L1775.466999,185.0150003Q1774.960999,185.9119997,1774.455002,186.625L1772.522999,185.7969999Q1773.350998,184.6700001,1773.880001,183.6809998Q1774.409,182.6919994,1774.915001,181.4039993L1777.030998,181.7029991Q1776.824001,182.2549992,1776.363998,183.2670002L1782.620003,183.2670002ZM1771.028,186.4639997L1772.937,186.0500002L1773.695999,187.614L1782.044998,187.614L1782.044998,191.363L1779.813999,191.363L1779.813999,189.27L1765.209,189.27L1765.209,190.742L1779.698997,190.742L1779.698997,195.434L1767.302,195.434L1767.302,196.906L1780.274002,196.906L1780.274002,202.656L1778.066002,202.656L1778.066002,201.782L1767.302,201.782L1767.302,202.702L1765.070999,202.702L1765.070999,191.363L1762.978001,191.363L1762.978001,187.614L1771.556999,187.614L1771.028,186.4639997ZM1777.490997,193.80100099999999L1777.490997,192.329L1767.302,192.329L1767.302,193.80100099999999L1777.490997,193.80100099999999ZM1778.066002,200.125999L1778.066002,198.493L1767.302,198.493L1767.302,200.125999L1778.066002,200.125999Z" fill="#FAFBFF" fill-opacity="1"/></g></g></g><rect x="1823" y="502" width="160" height="156" rx="0" fill="#FF3B3D" fill-opacity="0.550000011920929"/><rect x="898" y="502" width="160" height="156" rx="0" fill="#2C2C2C" fill-opacity="0.6901960968971252"/><g filter="url(#master_svgf_4_6309)"><path d="M1897.720001,568.8600006L1900.029999,568.8600006L1900.029999,591.959999Q1900.029999,593.91,1899.220001,594.75Q1898.410004,595.59,1896.459999,595.59L1893.669998,595.59L1893.220001,593.1L1895.800003,593.1Q1896.910004,593.1,1897.315002,592.709999Q1897.720001,592.32,1897.720001,591.18L1897.720001,568.8600006ZM1891.419998,569.9700012L1891.419998,580.23L1892.709999,580.23L1892.709999,582.75L1891.419998,582.75L1891.419998,592.5Q1891.419998,594.24,1890.790001,594.885Q1890.160004,595.529999,1888.629997,595.529999L1886.919998,595.529999L1886.470001,593.01L1887.790001,593.01Q1888.629997,593.01,1888.885002,592.709999Q1889.139999,592.41,1889.139999,591.360001L1889.139999,582.75L1886.950001,582.75Q1886.919998,586.290001,1886.709999,588.51Q1886.5,590.73,1886.02,592.440001Q1885.540001,594.15,1884.639999,596.040001L1882.720001,594.48Q1883.529999,592.83,1883.919998,591.450001Q1884.309998,590.07,1884.489998,588.120001Q1884.669998,586.17,1884.700001,582.75L1882.900002,582.75L1882.900002,591.959999Q1882.900002,593.219999,1882.689999,593.879999Q1882.48,594.540001,1881.924999,594.84Q1881.369999,595.139999,1880.290001,595.139999L1878.610001,595.139999L1878.130001,592.709999L1879.540001,592.709999Q1880.23,592.709999,1880.485001,592.32Q1880.739998,591.93,1880.739998,591.030001L1880.739998,582.75L1878.669998,582.75Q1878.639999,586.440001,1878.445,588.6Q1878.25,590.76,1877.755001,592.379999Q1877.259998,594,1876.240002,596.009998L1874.380001,594.450001Q1875.279999,592.74,1875.700001,591.405001Q1876.119999,590.07,1876.299999,588.15Q1876.48,586.23,1876.509998,582.75L1874.77,582.75L1874.77,580.23L1876.509998,580.23L1876.509998,580.17L1876.509998,569.9700012L1882.900002,569.9700012L1882.900002,580.23L1884.700001,580.23L1884.700001,580.17L1884.700001,569.9700012L1891.419998,569.9700012ZM1893.610001,571.5600014L1895.769997,571.5600014L1895.769997,589.049999L1893.610001,589.049999L1893.610001,571.5600014ZM1878.669998,572.5500011L1878.669998,580.23L1880.739998,580.23L1880.739998,572.5500011L1878.669998,572.5500011ZM1886.950001,572.5500011L1886.950001,580.23L1889.139999,580.23L1889.139999,572.5500011L1886.950001,572.5500011ZM1930.42,585.690001L1923.76,585.690001L1923.76,592.709999Q1923.76,593.940001,1923.43,594.6Q1923.1,595.259998,1922.395004,595.514999Q1921.690002,595.77,1920.43,595.77L1917.879997,595.77L1917.309998,593.190001L1919.529999,593.190001Q1920.550003,593.190001,1920.879997,592.905001Q1921.209999,592.620001,1921.209999,591.75L1921.209999,585.690001L1914.729996,585.690001L1914.729996,582.959999L1921.209999,582.959999L1921.209999,579.900002L1917.129997,579.900002L1917.129997,578.160001Q1915.870003,579.27,1914.790001,580.110001L1913.290001,577.65Q1918.690002,573.75,1921.209999,568.7399998L1923.7,568.7399998Q1924.99,571.1700001,1927.015,573.345001Q1929.04,575.52,1931.59,577.26L1930.27,579.810001Q1928.95,578.910001,1927.63,577.74L1927.63,579.900002L1923.76,579.900002L1923.76,582.959999L1930.42,582.959999L1930.42,585.690001ZM1914.129997,586.74Q1914.129997,588.51,1913.724998,589.485001Q1913.32,590.459999,1912.510002,590.834999Q1911.699997,591.209999,1910.32,591.209999L1909.150002,591.209999L1908.669998,588.690001L1909.629997,588.690001Q1910.919998,588.690001,1911.324997,588.18Q1911.729996,587.67,1911.729996,586.26Q1911.729996,585,1911.190002,583.455Q1910.650002,581.91,1909.57,580.26L1911.519997,573.060001L1908.309998,573.060001L1908.309998,596.130001L1905.760002,596.130001L1905.760002,570.3900013L1914.010002,570.3900013L1914.010002,573.09L1911.940002,579.869999Q1913.110001,581.880001,1913.620003,583.470001Q1914.129997,585.060001,1914.129997,586.74ZM1922.559998,571.6200008Q1920.910004,574.530001,1918.059998,577.290001L1927.12,577.290001Q1924.27,574.620001,1922.559998,571.6200008ZM1919.020004,587.610001Q1918.18,589.35,1916.964996,591.255001Q1915.75,593.16,1914.489998,594.719999L1912.599998,593.129999Q1913.800003,591.719999,1914.940002,589.950001Q1916.080002,588.18,1916.889999,586.470001L1919.020004,587.610001ZM1926.76,586.530001Q1927.66,587.639999,1929.07,589.605Q1930.48,591.57,1931.47,593.040001L1929.46,594.540001Q1928.5,592.889999,1925.32,588.51Q1925.2,588.33,1925.095,588.18Q1924.99,588.030001,1924.93,587.940001L1926.76,586.530001Z" fill="#FAFBFF" fill-opacity="1"/></g><g filter="url(#master_svgg_4_6422)"><path d="M929.73,585.720001Q928.32,584.369999,926.49,582.780001L926.49,596.130001L923.76,596.130001L923.76,583.26Q922.290001,586.65,920.34,589.619999L919.530001,585.779999Q920.700001,584.16,921.825001,581.775002Q922.950001,579.389999,923.67,576.9L920.219999,576.9L920.219999,574.110001L923.76,574.110001L923.76,568.5600014L926.49,568.5600014L926.49,574.110001L929.849998,574.110001L929.849998,576.9L926.49,576.9L926.49,579.6Q927.51,580.380001,928.889999,581.52Q930.27,582.66,931.139999,583.470001L929.73,585.720001ZM939.48,586.98Q942.059998,590.01,946.709999,593.370001L944.91,596.099998Q940.23,592.469999,937.650002,589.35Q934.709999,592.709999,929.67,596.189999L927.689999,593.790001Q932.91,590.4,935.849998,586.98Q933.93,584.16,932.790001,580.935001Q931.650002,577.710001,930.809998,573.27L930.779999,573.27L930.779999,570.4500008L944.489998,570.4500008L944.489998,573.24Q943.739998,577.620001,942.57,580.905001Q941.400002,584.190001,939.48,586.98ZM933.779999,573.27Q934.41,576.870001,935.324997,579.555Q936.239998,582.240002,937.68,584.52Q939.150002,582.240002,940.080002,579.51Q941.010002,576.780001,941.549999,573.27L933.779999,573.27ZM959.279999,572.25L957.119999,579.389999Q958.23,581.190001,958.799999,583.02Q959.369999,584.85,959.369999,586.470001Q959.369999,588.959999,958.455002,589.965Q957.540001,590.969999,955.32,590.969999L954.150002,590.969999L953.549999,588.389999L954.509998,588.389999Q955.470001,588.389999,955.950001,588.195Q956.43,588,956.639999,587.49Q956.849998,586.98,956.849998,585.959999Q956.849998,584.73,956.279999,583.110001Q955.709999,581.490002,954.599998,579.869999L956.610001,572.3100014L953.34,572.3100014L953.34,596.009998L950.759998,596.009998L950.759998,569.7900009L959.279999,569.7900009L959.279999,572.25ZM971.129997,589.35Q973.110001,591.48,976.6800000000001,593.040001L975.059998,595.41Q972.3000030000001,593.969999,970.5,592.334999Q968.6999969999999,590.700001,967.5,588.555Q966.3000030000001,586.41,965.489998,583.380001L963.4499969999999,583.380001L963.4499969999999,592.469999L967.739998,590.4L968.129997,593.07L961.080002,596.279999L959.880001,593.82Q960.509998,593.52,960.674999,593.25Q960.84,592.98,960.84,592.41L960.84,570L974.339996,570L974.339996,583.380001L967.9499969999999,583.380001Q968.760002,585.869999,969.690002,587.4Q972.1800000000001,585.779999,974.129997,583.950001L975.690002,585.900002Q972.900002,588.120001,971.129997,589.35ZM971.760002,575.640001L971.760002,572.4300003L963.4499969999999,572.4300003L963.4499969999999,575.640001L971.760002,575.640001ZM971.760002,577.98L963.4499969999999,577.98L963.4499969999999,580.950001L971.760002,580.950001L971.760002,577.98ZM993.360001,575.309999Q992.459999,576.390001,990.989998,577.710001L989.459999,575.67Q991.080002,574.26,992.5500030000001,572.2800007Q994.020004,570.3000011,994.9499969999999,568.3199997L997.379997,569.0699997Q996.989998,569.9700012,996.479996,570.8700008L1004.7,570.8700008L1004.7,573.120001Q1003.02,575.91,1000.56,577.860001Q1003.17,579.030001,1006.59,579.720001L1005.69,582.18Q1001.0699999999999,581.01,998.22,579.42Q995.220001,581.16,990.5699999999999,582.630001L989.5500030000001,580.23Q993.4499969999999,579.150002,995.940002,577.92Q994.5,576.75,993.360001,575.309999ZM987.1800000000001,569.1599998Q986.220001,572.7299995,984.870003,576.18L984.870003,596.130001L982.379997,596.130001L982.379997,581.459999Q981.330002,583.32,980.459999,584.549999L979.3199999999999,581.280001Q980.730003,579.240002,982.3050000000001,575.595001Q983.879997,571.9500008,984.690002,568.5900002L987.1800000000001,569.1599998ZM986.910004,573.120001L989.279999,573.120001L989.279999,591.450001L986.910004,591.450001L986.910004,573.120001ZM995.040001,573.18Q995.010002,573.24,994.9499969999999,573.300001Q994.889999,573.360001,994.830002,573.48Q996.150002,575.25,998.22,576.6Q1000.26,575.16,1001.61,573.18L995.040001,573.18ZM1001.46,582.33Q996.809998,585.33,991.9499969999999,586.950001L990.839996,584.73Q996.4499969999999,582.99,1000.29,580.440001L1001.46,582.33ZM990.690002,589.26Q993.870003,588.33,996.915001,586.875Q999.96,585.42,1002.5699999999999,583.619999L1003.86,585.51Q1001.34,587.370001,998.19,588.9Q995.040001,590.43,991.8000030000001,591.360001L990.690002,589.26ZM989.279999,593.940001Q993.809998,592.83,997.830002,591.059999Q1001.85,589.290001,1005,586.98L1006.29,588.9Q1000.17,593.700001,990.239998,596.189999L989.279999,593.940001ZM1029.99001,588.059999Q1032.45,590.91,1036.5,593.370001L1034.6399999999999,596.07Q1030.67999,593.370001,1028.16,590.34Q1025.34,593.370001,1020.48,596.279999L1018.62,593.73Q1023.75,590.91,1026.42,587.970001Q1024.26,584.67,1023.24,580.5Q1022.67,581.459999,1021.83,582.66L1020.09,580.200001Q1021.77,577.92,1023.165,574.605Q1024.56,571.2900009,1025.13,568.4400005L1028.03999,569.1000004Q1027.56,570.9300003,1026.81,573.060001L1036.2,573.060001L1036.2,575.940001L1033.98,575.940001Q1033.5,579.84,1032.55499,582.75Q1031.6100000000001,585.66,1029.99001,588.059999ZM1019.97,587.73L1020.45,590.639999L1011.45,595.380001L1010.04,592.77Q1010.55,592.26,1010.7,591.93Q1010.85,591.6,1010.85,591.18L1010.85,579.900002L1017.24,579.900002L1017.24,573.6L1010.31,573.6L1010.31,570.6599998L1020.03,570.6599998L1020.03,582.810001L1013.76,582.810001L1013.76,590.969999L1019.97,587.73ZM1025.22,576.84Q1025.64,579.450001,1026.3600000000001,581.610001Q1027.08,583.77,1028.22,585.630001Q1029.45,583.68,1030.125,581.355Q1030.8,579.030001,1031.19,575.940001L1025.64,575.940001L1025.22,576.84Z" fill="#FAFBFF" fill-opacity="1"/></g><rect x="1823" y="62" width="160" height="145" rx="0" fill="#FF3B3D" fill-opacity="0.5490196347236633" filter="url(#master_svgh_4_6666)"/><rect x="1983" y="62" width="100" height="145" rx="0" fill="#2C2C2C" fill-opacity="0.6901960968971252" filter="url(#master_svgi_4_6864)"/><path d="M1887.371969,103L1938.46759,103C1940.418541,103,1942,104.5670201,1942,106.4999998L1942,162.499996C1942,164.433044,1940.418541,166,1938.46759,166L1887.371969,166C1886.19087,166,1885.087944,165.415146,1884.432821,164.441448L1865.59326798,136.441444C1864.80224402,135.265797,1864.80224402,133.73420099999998,1865.59326798,132.55855L1884.432821,104.5585502C1885.087944,103.58484977,1886.19087,103,1887.371969,103ZM1910.208282,129.550299L1900.217205,119.650759L1895.22159,124.600492L1905.212742,134.5L1895.22159,144.399395L1900.217205,149.349094L1910.208282,139.44969600000002L1920.19936,149.349094L1925.195251,144.399395L1915.203823,134.5L1925.195251,124.600492L1920.19936,119.650759L1910.208282,129.550299Z" fill="#FAFBFF" fill-opacity="0.8901960849761963" style="mix-blend-mode:passthrough"/><path d="M2030.599785,132.249619L2030.599785,112.000022531107L2035.399736,112L2035.399736,132.249619L2056.99976,132.249166L2057,136.749277L2035.399736,136.749727L2035.399977,157L2030.600025,157L2030.600025,136.749727L2009.000096129414,136.750179L2009,132.250069L2030.599785,132.249619Z" fill="#A6A6A6" fill-opacity="1" style="mix-blend-mode:passthrough"/></g></svg>